# xmcd
#
# Track frame offsets:
#	150
#	15213
#	34232
#	49698
#	62930
#
# Disc length: 1065 seconds
#
# Revision: 0
# Processed by: cddbd v1.5.2PL0 Copyright (c) Steve Scherf et al.
# Submitted via: FairStars CD Ripper 1.90
#
DISCID=37042705
DTITLE=Thomas Rhett - EP
DYEAR=2012
DGENRE=Country
TTITLE0=Something To Do With My Hands
TTITLE1=Beer With Jesus
TTITLE2=Front Porch Junkies
TTITLE3=Watcha Got In That Cup
TTITLE4=Make Me Wanna
EXTD=
EXTT0=
EXTT1=
EXTT2=
EXTT3=
EXTT4=
PLAYORDER=
